# xmcd CD database file
#
# Track frame offsets:
#	150
#	13510
#	24965
#	35825
#	48350
#	61427
#	73227
#	81260
#	93362
#	99300
#	110865
#	123702
#	135972
#	151962
#	162060
#	172487
#	184262
#	196287
#
# Disc length: 2763 seconds
#
# Revision: 0
# Processed by: cddbd v1.4PL0 Copyright (c) Steve Scherf et al.
# Submitted via: NeoAudio 1.50.6
#
DISCID=fa0ac912
DTITLE=Various Artist - Kings of Country
DYEAR=1995
DGENRE=Country
TTITLE0=Amanda
TTITLE1=Big River
TTITLE2=Diggy Liggy Lo
TTITLE3=Rainbow Stew
TTITLE4=Devil Woman
TTITLE5=Sixteen Tons
TTITLE6=Doo-Wacka-Doo
TTITLE7=The Golden Rocket
TTITLE8=Please Help Me I'm Falling
TTITLE9=Sea Of Heartbreak
TTITLE10=North To Alaska
TTITLE11=The Door
TTITLE12=Whiskey River
TTITLE13=It's Only Make Believe
TTITLE14=I Get The Fever
TTITLE15=Walkin' The Floor Over You
TTITLE16=Galveston
TTITLE17=I'll Never Get Out Of This World Alive
EXTD=YEAR: 1995
EXTT0=
EXTT1=
EXTT2=
EXTT3=
EXTT4=
EXTT5=
EXTT6=
EXTT7=
EXTT8=
EXTT9=
EXTT10=
EXTT11=
EXTT12=
EXTT13=
EXTT14=
EXTT15=
EXTT16=
EXTT17=
PLAYORDER=
